<?xml version="1.0" standalone="no"?>
<!DOCTYPE svg PUBLIC "-//W3C//DTD SVG 20010904//EN"
 "http://www.w3.org/TR/2001/REC-SVG-20010904/DTD/svg10.dtd">
<svg version="1.0" xmlns="http://www.w3.org/2000/svg"
 width="371.000000pt" height="371.000000pt" viewBox="0 0 371.000000 371.000000"
 preserveAspectRatio="xMidYMid meet">
<metadata>
Created by potrace 1.11, written by Peter Selinger 2001-2013
</metadata>
<g transform="translate(0.000000,371.000000) scale(0.100000,-0.100000)"
fill="#000000" stroke="none">
<path d="M1860 3690 c-8 -11 -19 -20 -26 -20 -6 0 -17 -11 -24 -25 -7 -14 -20
-25 -29 -26 -39 -3 -47 -5 -67 -18 -18 -12 -20 -18 -11 -38 5 -13 14 -23 19
-23 4 0 8 -6 8 -14 0 -7 7 -19 15 -26 12 -10 14 -25 10 -60 -7 -57 7 -68 54
-39 36 22 69 18 114 -13 48 -34 62 -22 62 51 0 48 4 65 15 69 77 25 88 87 15
90 -47 2 -73 17 -81 47 -3 14 -11 25 -16 25 -5 0 -17 9 -26 20 l-17 21 -15
-21z"/>
<path d="M2056 3318 c-9 -13 -22 -31 -29 -41 -15 -21 -114 -51 -131 -39 -6 4
-36 7 -66 7 -45 1 -57 4 -64 20 -5 11 -23 29 -41 41 l-32 21 -22 -47 c-18 -38
-32 -51 -79 -74 -56 -28 -56 -28 -35 -45 15 -13 18 -22 11 -34 -12 -23 -4 -34
32 -42 17 -4 30 -10 31 -13 8 -72 20 -80 66 -43 l38 31 62 -19 c56 -17 62 -17
61 -2 0 9 3 31 7 50 6 25 5 32 -3 27 -7 -4 -12 -1 -12 8 0 9 -5 16 -12 16 -6
0 1 13 16 29 15 16 27 33 26 37 -5 23 21 11 35 -15 8 -17 19 -31 24 -31 15 0
19 -25 11 -71 -13 -64 6 -75 66 -42 l45 25 49 -26 c26 -14 52 -26 57 -26 5 0
10 27 10 60 0 56 2 61 41 96 23 20 39 40 37 44 -3 5 -27 13 -55 20 -27 7 -50
16 -50 20 0 7 -68 80 -75 80 -1 0 -10 -10 -19 -22z"/>
<path d="M1797 3013 c-4 -3 -7 -17 -7 -30 0 -12 -13 -36 -30 -51 -35 -34 -38
-58 -10 -67 24 -8 28 -53 5 -61 -8 -4 -15 -13 -15 -20 0 -33 -43 -141 -66
-165 -13 -14 -24 -35 -24 -46 0 -12 -7 -29 -16 -37 -8 -9 -11 -16 -4 -16 6 0
4 -10 -6 -25 -9 -14 -13 -32 -10 -41 4 -9 1 -23 -6 -31 -6 -8 -13 -37 -14 -64
-3 -61 -30 -109 -69 -122 -17 -6 -34 -16 -40 -22 -16 -20 -93 -26 -110 -8 -8
8 -12 19 -9 25 4 7 2 8 -4 4 -7 -4 -12 -2 -12 4 0 25 -116 128 -158 141 -38
11 -48 10 -103 -12 -34 -13 -72 -34 -84 -45 -13 -12 -26 -20 -29 -17 -2 3 -9
-5 -16 -16 -6 -12 -8 -21 -5 -21 3 0 1 -9 -6 -21 -7 -14 -7 -25 -1 -31 6 -6 7
-21 2 -38 -5 -16 -4 -32 1 -37 6 -6 4 -15 -6 -23 -19 -16 -20 -60 -1 -60 10 0
12 -7 8 -22 -4 -16 -2 -19 9 -13 8 5 5 -2 -6 -14 -16 -18 -17 -25 -7 -42 11
-17 9 -21 -12 -29 -13 -5 -27 -14 -31 -20 -4 -6 -14 -9 -22 -6 -8 3 -11 1 -8
-4 3 -6 -1 -10 -9 -10 -9 0 -16 -4 -16 -10 0 -5 -9 -10 -21 -10 -14 0 -19 -5
-17 -17 2 -10 -12 -34 -31 -55 -19 -21 -36 -44 -37 -51 -3 -22 -35 -67 -55
-78 -11 -5 -19 -14 -19 -20 0 -5 -16 -23 -35 -40 -19 -17 -32 -35 -29 -40 3
-5 -6 -32 -20 -60 -15 -28 -26 -57 -26 -64 0 -7 -6 -15 -14 -18 -8 -3 -17 -21
-21 -39 -4 -18 -11 -38 -15 -43 -5 -6 -16 -42 -25 -80 -9 -39 -20 -83 -25
-100 -5 -16 -14 -82 -20 -145 -6 -63 -12 -134 -15 -157 -4 -46 12 -113 44
-186 11 -26 21 -51 22 -55 0 -4 5 -15 10 -24 5 -10 5 -19 0 -22 -10 -7 8 -77
22 -87 5 -4 7 -18 5 -33 -2 -20 5 -33 32 -57 99 -87 358 -248 373 -232 4 3 7
2 7 -4 0 -20 280 -124 367 -137 33 -4 53 7 33 19 -5 3 -10 9 -10 13 0 12 39
12 46 0 4 -7 9 -6 14 3 13 20 38 20 33 -1 -3 -10 1 -21 8 -25 8 -5 10 -4 5 3
-4 7 -3 12 3 12 5 0 12 -4 16 -10 3 -5 12 -7 20 -4 8 4 12 10 9 15 -3 5 2 6
10 3 8 -3 24 0 36 6 18 9 24 9 30 -1 7 -10 14 -10 39 0 16 7 52 13 78 13 116
-1 137 -1 147 1 6 1 10 -6 10 -15 -1 -9 5 -19 13 -22 8 -3 11 -1 8 4 -3 6 1
13 9 16 9 3 16 12 16 19 0 7 8 15 18 19 75 26 101 33 96 25 -3 -5 2 -9 11 -9
9 0 13 5 10 10 -3 6 2 11 12 11 69 5 123 17 139 30 6 5 14 6 18 1 4 -4 12 1
17 11 6 9 18 17 28 17 20 0 70 23 80 37 9 12 67 43 83 43 7 0 24 9 38 20 14
11 31 20 38 20 8 0 26 9 42 20 15 11 30 17 34 13 3 -3 6 -1 6 6 0 8 18 11 58
9 51 -3 57 -1 57 17 0 12 7 20 16 20 24 0 69 37 69 57 0 10 6 18 14 18 22 0
46 29 46 56 0 13 5 24 10 24 6 0 10 12 10 26 0 17 6 28 20 31 11 3 20 12 20
19 0 8 5 14 11 14 6 0 9 6 6 14 -3 7 3 26 13 41 11 16 16 33 13 38 -3 5 1 13
8 18 8 4 14 16 15 26 0 10 7 31 14 46 12 24 12 30 -1 38 -12 8 -6 13 13 11 8
-2 42 77 43 98 0 8 8 15 17 15 9 0 20 4 25 9 4 5 3 6 -4 2 -7 -4 -13 -2 -13 3
0 6 5 11 11 11 6 0 3 7 -5 16 -18 17 -21 28 -6 19 6 -3 10 1 10 10 0 10 -5 13
-12 9 -8 -5 -7 0 2 11 9 11 10 16 3 11 -7 -4 -13 -2 -13 3 0 6 4 11 9 11 5 0
8 11 5 25 -3 17 0 25 10 25 9 0 13 6 10 14 -3 8 -1 17 5 21 6 3 11 28 11 54 0
31 5 53 15 61 8 7 13 16 10 20 -3 5 -1 11 5 15 15 9 12 37 -2 30 -7 -4 -4 1 6
9 11 9 15 16 8 16 -7 0 -11 12 -9 33 2 17 0 37 -5 44 -6 7 -5 20 1 31 8 15 7
23 -3 32 -11 8 -12 18 -5 39 6 18 6 37 0 53 -5 14 -8 28 -5 30 2 3 -2 18 -11
34 -8 16 -15 33 -15 38 0 17 -53 126 -61 126 -4 0 -6 8 -4 18 4 24 -2 32 -48
62 -20 14 -40 33 -43 43 -3 9 -10 17 -15 17 -6 0 -7 5 -4 10 3 6 -2 10 -12 10
-10 0 -25 9 -33 20 -8 11 -21 20 -30 20 -10 0 -11 3 -4 8 16 10 27 67 25 127
-1 60 -21 145 -33 145 -5 0 -7 3 -5 8 2 4 -3 21 -13 37 -13 24 -24 31 -55 33
-35 3 -54 -2 -107 -29 -10 -5 -24 -9 -32 -9 -7 0 -19 -7 -26 -16 -8 -8 -27
-21 -44 -29 -38 -17 -76 -49 -76 -64 0 -6 -17 -22 -38 -36 -36 -23 -43 -25
-103 -16 -35 5 -68 7 -72 4 -4 -3 -15 1 -23 8 -8 7 -34 12 -56 11 -23 -1 -77
8 -120 19 -44 12 -82 19 -85 15 -11 -11 -44 26 -33 39 6 7 4 21 -5 39 -8 16
-13 39 -11 52 3 13 -1 30 -7 36 -14 15 -19 50 -6 42 5 -3 9 0 9 5 0 6 -4 11
-10 11 -5 0 -10 5 -10 11 0 5 4 8 9 5 4 -3 13 6 19 19 7 14 15 25 19 25 12 0
10 64 -2 72 -5 4 -10 22 -10 40 -1 19 -4 38 -7 43 -3 6 -2 33 2 60 4 28 8 46
9 41 0 -6 14 3 30 18 l30 29 25 -29 c26 -30 33 -58 16 -69 -18 -11 -11 -32 16
-44 22 -10 31 -8 59 9 33 20 33 20 82 1 l49 -19 -4 55 c-3 38 0 53 7 49 7 -5
8 -1 4 10 -5 14 -3 16 11 11 11 -4 15 -3 11 4 -4 6 1 19 10 29 16 17 16 21 2
35 -10 9 -33 15 -61 15 -25 0 -46 4 -46 8 0 5 -9 18 -21 31 l-21 22 -41 -44
c-23 -25 -56 -50 -74 -55 l-32 -11 -7 45 c-3 24 -10 44 -14 44 -5 0 -6 9 -3
20 6 23 8 23 -36 10 -28 -8 -40 -6 -66 10 -18 11 -35 17 -38 13z m1193 -1523
c0 -5 -4 -10 -10 -10 -5 0 -10 5 -10 10 0 6 5 10 10 10 6 0 10 -4 10 -10z m-5
-78 c-6 -15 -8 -15 -14 3 -5 11 -3 25 3 31 14 15 21 -9 11 -34z m-9 -59 c-4
-9 -2 -11 6 -7 8 5 9 -5 5 -37 -10 -67 -14 -81 -31 -114 -9 -16 -16 -42 -16
-57 0 -15 -5 -30 -12 -34 -7 -4 -8 -3 -4 4 4 7 1 12 -6 13 -10 0 -10 2 0 6 19
7 14 23 -10 32 -23 9 -23 9 5 16 15 4 27 11 27 17 0 5 -3 7 -7 5 -5 -3 -8 8
-8 24 0 17 5 29 13 29 6 0 13 12 14 28 0 15 2 32 3 37 2 6 3 23 4 38 1 17 5
26 12 22 6 -4 8 -14 5 -22z m-1016 -315 c0 -10 -4 -18 -10 -18 -5 0 -9 3 -8 8
1 4 -3 17 -10 30 -13 22 -12 22 7 10 12 -7 21 -21 21 -30z m-1170 12 c0 -5 -5
-10 -11 -10 -5 0 -7 5 -4 10 3 6 8 10 11 10 2 0 4 -4 4 -10z m1710 -60 c0 -15
-39 -50 -45 -41 -2 5 2 12 10 15 8 3 15 9 14 13 -3 15 1 23 11 23 6 0 10 -4
10 -10z m-504 -34 c1 -8 -3 -13 -10 -10 -6 2 -13 14 -13 26 -2 16 1 18 9 10 7
-7 13 -18 14 -26z m-1163 -31 c-12 -32 -23 -14 -14 23 1 2 5 1 11 -3 5 -3 7
-12 3 -20z m1204 0 c0 -8 -4 -15 -9 -15 -10 0 -11 14 -1 23 9 10 10 9 10 -8z
m338 -84 c3 -5 2 -12 -3 -15 -5 -3 -9 1 -9 9 0 17 3 19 12 6z m-1297 -16 c4
-4 -4 -4 -17 0 -16 5 -21 4 -17 -4 4 -6 3 -11 -3 -11 -5 0 -13 5 -16 10 -4 6
-11 8 -16 5 -5 -4 -9 -1 -9 5 0 12 66 8 78 -5z m1343 -368 c-10 -9 -11 -8 -5
6 3 10 9 15 12 12 3 -3 0 -11 -7 -18z m149 3 c0 -5 -5 -10 -11 -10 -5 0 -7 5
-4 10 3 6 8 10 11 10 2 0 4 -4 4 -10z m-208 -112 c-7 -7 -12 -8 -12 -2 0 14
12 26 19 19 2 -3 -1 -11 -7 -17z m-822 -23 c0 -8 -7 -15 -15 -15 -13 0 -14 3
-3 15 16 18 18 18 18 0z m44 -90 c-4 -10 -17 -15 -40 -13 -38 2 -36 10 4 16
15 2 29 5 31 8 8 8 10 4 5 -11z m-178 -117 c5 -8 2 -9 -9 -5 -10 4 -17 1 -17
-5 0 -6 -3 -9 -6 -5 -7 7 4 27 16 27 5 0 12 -5 16 -12z m98 -9 c-27 -11 -34
-10 -34 0 0 11 31 20 44 13 5 -3 1 -9 -10 -13z m36 -20 c0 -4 -6 -9 -13 -12
-8 -3 -14 0 -14 7 0 7 6 13 14 13 7 0 13 -4 13 -8z m-246 -14 c-7 -16 -24 -21
-24 -6 0 8 7 13 27 20 1 1 0 -6 -3 -14z"/>
<path d="M1380 2985 c0 -7 -7 -21 -16 -29 -9 -9 -13 -24 -9 -35 4 -13 -5 -27
-31 -49 -29 -25 -34 -35 -25 -45 6 -8 8 -17 4 -20 -3 -4 5 -7 19 -7 24 0 68
-36 68 -57 0 -6 6 -16 14 -22 15 -13 36 2 56 39 8 16 20 18 65 16 l55 -4 -6
42 c-4 22 -12 50 -18 60 -10 15 -9 26 6 54 9 19 15 38 13 43 -3 4 -27 0 -54
-8 -48 -16 -50 -16 -95 10 -33 18 -46 22 -46 12z"/>
<path d="M1919 2498 c-1 -2 -3 -16 -5 -33 -3 -29 -2 -29 12 -10 9 12 11 21 4
23 -5 2 -8 8 -4 13 3 5 3 9 0 9 -3 0 -7 -1 -7 -2z"/>
<path d="M1727 54 c7 -3 9 -13 6 -22 -4 -14 -3 -14 5 -2 12 16 7 30 -11 29 -9
0 -9 -2 0 -5z"/>
<path d="M1863 40 c-2 -25 3 -25 17 0 8 15 8 20 -3 20 -7 0 -13 -9 -14 -20z"/>
<path d="M1394 39 c-4 -7 -3 -9 4 -5 5 3 13 0 15 -6 4 -9 6 -10 6 -1 1 17 -16
25 -25 12z"/>
</g>
</svg>
